<svg id="Capa_1" enable-background="new 0 0 512 512" height="512" viewBox="0 0 512 512" width="512" xmlns="http://www.w3.org/2000/svg"><g><path d="m226.075 130c-41.342 0-74.976 33.634-74.976 74.975v100.025c0 8.284 6.716 15 15 15h.913l8.558 137h100.96l8.558-137h.962c8.284 0 15-6.716 15-15v-100.025c0-41.341-33.634-74.975-74.975-74.975z" fill="#22e0e0"/><path d="m226.1 130v327h50.43c10.787-172.647 8.134-130.18 8.56-137h.96c8.28 0 15-6.72 15-15v-100.02c0-41.555-33.865-74.98-74.95-74.98z" fill="#22c7e0"/><path d="m361 240v30h20.05c8.28 0 15 6.72 15 15s-6.72 15-15 15h-20.05v30h40.05c8.28 0 15 6.72 15 15s-6.72 15-15 15h-40.05v30h20.05c8.28 0 15 6.72 15 15s-6.72 15-15 15h-20.05v37h-30v-442c0-8.28 6.72-15 15-15s15 6.72 15 15v15h20.05c8.28 0 15 6.72 15 15s-6.72 15-15 15h-20.05v30h40.05c8.28 0 15 6.72 15 15s-6.72 15-15 15h-40.05v30h20.05c8.28 0 15 6.72 15 15s-6.72 15-15 15h-20.05v30h40.05c8.28 0 15 6.72 15 15s-6.72 15-15 15z" fill="#f4425c"/><path d="m406 452h-300c-8.284 0-15 6.716-15 15v30c0 8.284 6.716 15 15 15h300c8.284 0 15-6.716 15-15v-30c0-8.284-6.716-15-15-15z" fill="#e6faff"/><path d="m421 467v30c0 8.28-6.72 15-15 15h-179.9v-60h179.9c8.28 0 15 6.72 15 15z" fill="#ccf8ff"/><circle cx="226.1" cy="95" fill="#fbcdbe" r="45"/><path d="m271.1 95c0 24.925-20.296 45-45 45v-90c24.81 0 45 20.19 45 45z" fill="#fdbbab"/></g></svg>