<svg height="512" viewBox="0 0 64 64" width="512" xmlns="http://www.w3.org/2000/svg"><g id="flat"><path d="m51 61h-14l-2-24h18z" fill="#cdeef6"/><path d="m25 13v-4h-8v4l-6 6v39l3 3h14l3-3v-39z" fill="#cdeef6"/><path d="m26 23c-2.5 0-2.5-1-5-1s-2.5 1-5 1-2.5-1-5-1v36a3 3 0 0 0 3 3h14a3 3 0 0 0 3-3v-36c-2.5 0-2.5 1-5 1z" fill="#87cee9"/><path d="m15 3h12v6h-12z" fill="#195c85"/><path d="m18 3h2v3h-2z" fill="#87cee9"/><path d="m22 3h2v3h-2z" fill="#87cee9"/><path d="m11 27h20v16h-20z" fill="#195c85"/><path d="m24 36a3 3 0 0 1 -6 0c0-1.657 3-5 3-5s3 3.343 3 5z" fill="#f4f4e6"/><path d="m16.707 20.707-1.414-1.414 3.707-3.707v-1.586h2v2a1 1 0 0 1 -.293.707z" fill="#87cee9"/><g fill="#f4f4e6"><path d="m18 58h-3a1 1 0 0 1 -1-1v-5h2v4h2z"/><path d="m20 56h2v2h-2z"/><path d="m24 56h2v2h-2z"/></g><path d="m37 61h14l1.656-19.873c-1.276.273-1.711.873-3.656.873-2.5 0-2.5-1-5-1s-2.5 1-5 1c-1.943 0-2.379-.6-3.651-.873z" fill="#87cee9"/><g fill="#f4f4e6"><path d="m46 47h2v2h-2z"/><path d="m41 52h2v2h-2z"/></g></g></svg>