<svg id="Capa_1" enable-background="new 0 0 512 512" height="512" viewBox="0 0 512 512" width="512" xmlns="http://www.w3.org/2000/svg"><g><g><ellipse cx="248.081" cy="255.984" fill="#ffdd91" rx="197.611" ry="197.611" transform="matrix(.707 -.707 .707 .707 -108.346 250.396)"/><path d="m248.081 435.594c-106.12 0-192.692-83.652-197.398-188.611-.134 2.984-.213 5.983-.213 9 0 109.138 88.474 197.611 197.611 197.611s197.611-88.473 197.611-197.611c0-3.017-.079-6.016-.213-9-4.706 104.959-91.278 188.611-197.398 188.611z" fill="#f9cd80"/><path d="m247.937 453.416c-109.03 0-197.416-88.386-197.416-197.416s88.386-197.416 197.416-197.416c101.059 0 184.369 75.94 196.012 173.866h-22.441l41.246 43.895 41.246-43.895h-17.277c-11.834-121.459-114.219-216.387-238.786-216.387-132.513 0-239.937 107.423-239.937 239.937s107.424 239.937 239.937 239.937c110.534 0 203.595-74.75 231.431-176.453h-44.447c-26.435 77.885-100.163 133.932-186.984 133.932z" fill="#f95750"/><g><path d="m247.937 477.937c-129.499 0-235.017-102.596-239.752-230.937-.11 2.988-.185 5.985-.185 9 0 132.514 107.424 239.937 239.937 239.937 110.534 0 203.596-74.75 231.431-176.453h-5.71c-33.361 92.4-121.818 158.453-225.721 158.453z" fill="#e84642"/></g></g><g><path d="m419.064 413.936c-21.597 23.395-47.218 41.821-76.154 54.766-29.946 13.397-61.906 20.19-94.99 20.19-62.207 0-120.692-24.225-164.679-68.212-43.987-43.988-68.212-102.473-68.212-164.68s24.225-120.692 68.213-164.68c43.987-43.987 102.472-68.212 164.679-68.212 43.727 0 86.34 12.186 123.232 35.239 3.521 2.199 8.156 1.129 10.355-2.39 2.2-3.52 1.129-8.156-2.39-10.355-39.283-24.548-84.651-37.523-131.197-37.523-66.222 0-128.48 25.788-175.306 72.614-46.826 46.827-72.615 109.085-72.615 175.307s25.789 128.48 72.614 175.307c46.826 46.826 109.084 72.614 175.306 72.614 35.213 0 69.238-7.234 101.128-21.5 30.802-13.78 58.074-33.392 81.059-58.29 2.815-3.05 2.625-7.804-.425-10.619-3.05-2.817-7.804-2.626-10.618.424z"/><path d="m511.382 229.421c-1.19-2.75-3.9-4.531-6.897-4.531h-10.586c-3.84-30.749-13.3-60.111-28.161-87.377-15.526-28.485-36.186-53.34-61.406-73.873-3.219-2.622-7.953-2.134-10.572 1.083-2.62 3.219-2.135 7.952 1.083 10.572 23.7 19.295 43.112 42.648 57.699 69.41 14.978 27.482 24.114 57.233 27.154 88.428.373 3.83 3.577 6.755 7.418 6.786l-23.954 25.492-23.955-25.492h5.112c4.373.099 8.077-4.072 7.462-8.402-12.257-103.092-99.897-180.833-203.858-180.833-113.212 0-205.316 92.104-205.316 205.316 0 38.216 10.573 75.511 30.576 107.853 1.422 2.298 3.881 3.563 6.398 3.563 1.349 0 2.714-.363 3.946-1.125 3.529-2.183 4.621-6.814 2.438-10.344-18.533-29.965-28.329-64.526-28.329-99.947 0-104.925 85.362-190.287 190.287-190.287 93.506 0 172.764 67.852 187.746 159.177h-13.836c-6.385-.212-10.002 8.153-5.477 12.66l41.328 43.981c2.819 3.131 8.134 3.131 10.953 0l41.327-43.981c2.051-2.184 2.61-5.378 1.42-8.129z"/><path d="m479.804 312.093h-44.533c-3.219 0-6.081 2.051-7.116 5.099-26.206 77.215-98.637 129.094-180.234 129.094-55.874 0-108.71-24.425-144.962-67.012-2.69-3.16-7.434-3.542-10.593-.851-3.16 2.69-3.541 7.433-.851 10.593 39.113 45.948 96.12 72.3 156.406 72.3 86.228 0 162.972-53.705 192.66-134.194h29.158c-7.332 22.91-18.154 44.455-32.247 64.169-2.413 3.376-1.633 8.07 1.744 10.483 3.378 2.415 8.071 1.632 10.483-1.744 17.06-23.864 29.62-50.255 37.334-78.44.618-2.26.147-4.679-1.275-6.542-1.421-1.862-3.631-2.955-5.974-2.955z"/><path d="m105.606 313.043c.88.336 1.784.494 2.673.494 3.027 0 5.882-1.844 7.023-4.842l7.181-18.855h47.848l7.108 18.834c1.465 3.883 5.802 5.845 9.684 4.378 3.883-1.466 5.842-5.801 4.377-9.684l-35.907-95.146c-.025-.069-.052-.137-.08-.205-1.502-3.653-5.023-6.012-8.973-6.012-.003 0-.006 0-.008 0-3.953.003-7.475 2.369-8.972 6.028-.023.057-.046.114-.067.171l-36.236 95.142c-1.477 3.879.47 8.22 4.349 9.697zm40.911-86.305 18.143 48.073h-36.452z"/><path d="m364.291 217.476c4.151 0 7.515-3.365 7.515-7.515s-3.364-7.515-7.515-7.515h-40.291c-4.151 0-7.515 3.365-7.515 7.515v95.619c0 4.15 3.364 7.515 7.515 7.515h40.291c4.151 0 7.515-3.365 7.515-7.515s-3.364-7.515-7.515-7.515h-32.776v-32.78h29.805c4.151 0 7.515-3.365 7.515-7.515s-3.364-7.515-7.515-7.515h-29.805v-32.78h32.776z"/><path d="m252.099 217.035c8.163 0 16.037 2.404 22.771 6.953 3.439 2.324 8.111 1.418 10.434-2.021s1.419-8.11-2.021-10.433c-9.228-6.233-20.011-9.528-31.184-9.528-30.749 0-55.765 25.016-55.765 55.765s25.016 55.765 55.765 55.765c28.948 0 49.166-22.931 49.166-55.765 0-4.15-3.364-7.515-7.515-7.515h-28.868c-4.151 0-7.515 3.365-7.515 7.515s3.364 7.515 7.515 7.515h20.937c-2.809 24.354-19.363 33.221-33.721 33.221-22.462 0-40.736-18.274-40.736-40.736.001-22.462 18.275-40.736 40.737-40.736z"/></g></g></svg>