<?xml version="1.0" encoding="iso-8859-1"?>
<!-- Generator: Adobe Illustrator 19.0.0, SVG Export Plug-In . SVG Version: 6.00 Build 0)  -->
<svg version="1.1" id="Capa_1" xmlns="http://www.w3.org/2000/svg" xmlns:xlink="http://www.w3.org/1999/xlink" x="0px" y="0px"
	 viewBox="0 0 512 512" style="enable-background:new 0 0 512 512;" xml:space="preserve">
<path style="fill:#76B7EB;" d="M446.966,492.306H65.034c-31.775,0-57.534-25.759-57.534-57.534V77.229
	c0-31.775,25.759-57.534,57.534-57.534h381.932c31.775,0,57.534,25.759,57.534,57.534v357.543
	C504.5,466.547,478.741,492.306,446.966,492.306z"/>
<path style="fill:#B3E7FF;" d="M7.5,285.586v149.185c0,31.775,25.759,57.534,57.534,57.534h381.932
	c31.775,0,57.534-25.759,57.534-57.534V285.586H7.5z"/>
<path style="fill:#FFFFFF;" d="M326.003,145.328H185.997c-7.988,0-14.464-6.476-14.464-14.464V75.787
	c0-7.988,6.476-14.464,14.464-14.464h140.006c7.988,0,14.464,6.476,14.464,14.464v55.077
	C340.467,138.852,333.991,145.328,326.003,145.328z"/>
<path style="fill:#7FDBD5;" d="M310.009,145.328c0-29.828-24.181-54.009-54.009-54.009s-54.009,24.181-54.009,54.009H310.009z"/>
<path style="fill:#38648C;" d="M134.471,432.229c-33.23-34.142-67.295-93.84-55.364-183.218
	c4.095-30.678,26.423-59.017,59.017-59.017s54.78,23.91,59.017,59.017c3.356,27.814-3.734,46.458-9.469,70.557
	c-7.922,33.285,12.422,55.708,12.422,85.48c0,21.23-17.21,38.44-38.44,38.44C151.038,443.488,141.428,439.185,134.471,432.229z"/>
<path style="opacity:0.1;enable-background:new    ;" d="M161.653,428.927c-6.349,0-12.319-2.461-16.822-6.931
	c-18.291-18.815-32.192-40.918-41.312-65.693c-11.709-31.804-15.066-67.254-9.978-105.366c3.077-23.048,19.379-46.382,44.584-46.382
	c24.412,0,41.071,17.271,44.561,46.2c2.432,20.154-1.288,34.552-5.997,52.781c-1.048,4.056-2.132,8.25-3.181,12.66
	c-5.555,23.338,0.384,42.036,5.623,58.534c3.293,10.369,6.403,20.162,6.403,30.318C185.532,418.216,174.82,428.927,161.653,428.927z
	"/>
<path style="fill:#38648C;" d="M377.529,432.229c33.23-34.142,67.295-93.84,55.364-183.218
	c-4.095-30.678-26.423-59.017-59.016-59.017c-32.594,0-54.78,23.91-59.017,59.017c-3.356,27.814,3.734,46.458,9.469,70.557
	c7.922,33.285-12.422,55.708-12.422,85.48c0,21.23,17.21,38.44,38.44,38.44C360.962,443.488,370.572,439.185,377.529,432.229z"/>
<path style="opacity:0.1;enable-background:new    ;" d="M350.347,428.927c-13.167,0-23.879-10.712-23.879-23.879
	c0-10.156,3.11-19.95,6.403-30.318c5.239-16.498,11.178-35.197,5.623-58.533c-1.05-4.411-2.133-8.605-3.181-12.661
	c-4.709-18.229-8.429-32.628-5.997-52.781c3.49-28.93,20.149-46.2,44.561-46.2c25.205,0,41.507,23.334,44.584,46.382
	c5.088,38.111,1.73,73.562-9.978,105.366c-9.121,24.775-23.021,46.878-41.312,65.693
	C362.666,426.466,356.696,428.927,350.347,428.927z"/>
<g>
	<path style="fill:#38648C;" d="M7.5,410.269v24.502c0,31.775,25.759,57.534,57.534,57.534h24.502l0,0
		C89.536,446.997,52.807,410.269,7.5,410.269L7.5,410.269z"/>
	<path style="fill:#38648C;" d="M504.5,410.269v24.502c0,31.775-25.759,57.534-57.534,57.534h-24.502l0,0
		C422.464,446.997,459.193,410.269,504.5,410.269L504.5,410.269z"/>
</g>
<g>
	<circle style="fill:#B3E7FF;" cx="118.46" cy="78.05" r="14.948"/>
	<circle style="fill:#B3E7FF;" cx="62.69" cy="78.05" r="14.948"/>
	<circle style="fill:#B3E7FF;" cx="118.46" cy="129.16" r="14.948"/>
	<circle style="fill:#B3E7FF;" cx="62.69" cy="129.16" r="14.948"/>
	<circle style="fill:#B3E7FF;" cx="393.54" cy="78.05" r="14.948"/>
	<circle style="fill:#B3E7FF;" cx="449.31" cy="78.05" r="14.948"/>
	<circle style="fill:#B3E7FF;" cx="393.54" cy="129.16" r="14.948"/>
	<circle style="fill:#B3E7FF;" cx="449.31" cy="129.16" r="14.948"/>
</g>
<path style="opacity:0.1;enable-background:new    ;" d="M304.179,492.306C127.903,393.579,79.661,116.668,131.548,19.694H65.034
	C33.259,19.694,7.5,45.452,7.5,77.229v357.543c0,31.775,25.759,57.534,57.534,57.534H304.179z"/>
<path d="M185.997,53.823c-12.111,0-21.964,9.853-21.964,21.964v55.077c0,12.111,9.853,21.964,21.964,21.964h69.981
	c0.005,0,0.01,0.001,0.015,0.001s0.01-0.001,0.015-0.001h69.995c12.111,0,21.964-9.852,21.964-21.964V75.787
	c0-12.111-9.853-21.964-21.964-21.964H185.997z M332.967,75.787v55.077c0,3.84-3.124,6.964-6.964,6.964H269.19l24.093-40.487
	c2.118-3.559,0.95-8.162-2.61-10.28c-3.56-2.119-8.163-0.949-10.281,2.61l-28.657,48.157h-65.739c-3.84,0-6.964-3.124-6.964-6.964
	V75.787c0-3.84,3.124-6.964,6.964-6.964h140.006C329.843,68.823,332.967,71.947,332.967,75.787z M504.5,159.768
	c4.142,0,7.5-3.357,7.5-7.5v-75.04c0-35.86-29.174-65.034-65.034-65.034H65.034C29.174,12.194,0,41.368,0,77.229v357.543
	c0,35.86,29.174,65.034,65.034,65.034h381.932c35.86,0,65.034-29.174,65.034-65.034V187.449c0-4.143-3.358-7.5-7.5-7.5
	s-7.5,3.357-7.5,7.5v90.636h-54.268c-0.249-9.851-1.044-19.877-2.405-30.067c-4.347-32.562-28.568-65.525-66.451-65.525
	c-35.565,0-61.653,25.757-66.462,65.618c-1.341,11.11-1.095,20.856,0.021,29.974h-102.87c1.116-9.118,1.362-18.864,0.021-29.974
	c-4.81-39.861-30.897-65.618-66.462-65.618c-37.883,0-62.104,32.963-66.451,65.525c-1.36,10.19-2.155,20.216-2.405,30.067H15V77.229
	c0-27.589,22.445-50.034,50.034-50.034h381.932C474.555,27.194,497,49.639,497,77.229v75.04
	C497,156.41,500.358,159.768,504.5,159.768z M497,434.772c0,27.589-22.445,50.034-50.034,50.034h-16.625
	c3.526-35.124,31.536-63.133,66.659-66.659V434.772z M331.625,317.832c-1.034-4.345-2.109-8.507-3.149-12.531
	c-4.702-18.198-8.762-33.916-6.171-55.392c3.901-32.331,23.662-52.415,51.571-52.415c29.263,0,48.099,26.415,51.583,52.509
	c5.241,39.262,1.758,75.847-10.351,108.739c-9.472,25.73-23.911,48.681-42.918,68.219c-5.84,5.822-13.595,9.027-21.843,9.027
	c-17.06,0-30.939-13.88-30.939-30.94c0-11.25,3.271-21.55,6.734-32.454C331.346,356.207,336.727,339.264,331.625,317.832z
	 M86.541,250.003c3.483-26.094,22.32-52.509,51.583-52.509c27.909,0,47.67,20.084,51.571,52.415
	c2.591,21.476-1.469,37.193-6.171,55.392c-1.04,4.024-2.115,8.186-3.149,12.531c-5.101,21.432,0.28,38.375,5.484,54.762
	c3.463,10.904,6.734,21.204,6.734,32.454c0,17.06-13.879,30.94-30.939,30.94c-8.247,0-16.003-3.205-21.843-9.027
	c-19.007-19.538-33.446-42.489-42.918-68.219C84.783,325.85,81.3,289.265,86.541,250.003z M69.321,293.086
	c0.822,24.938,5.323,48.643,13.495,70.839c10.209,27.73,25.78,52.472,46.281,73.536c0.023,0.023,0.047,0.048,0.071,0.072
	c8.677,8.677,20.213,13.455,32.484,13.455c25.331,0,45.939-20.608,45.939-45.94c0-13.574-3.781-25.48-7.438-36.994
	c-4.796-15.102-9.325-29.364-5.188-46.749c1.001-4.205,2.058-8.296,3.08-12.252c1.382-5.348,2.735-10.615,3.907-15.967h108.092
	c1.172,5.352,2.526,10.619,3.907,15.967c1.022,3.956,2.079,8.047,3.08,12.252c4.138,17.385-0.392,31.647-5.188,46.749
	c-3.656,11.514-7.438,23.42-7.438,36.994c0,25.332,20.608,45.94,45.939,45.94c12.271,0,23.808-4.778,32.484-13.455
	c0.024-0.024,0.048-0.049,0.071-0.072c20.501-21.064,36.072-45.806,46.281-73.536c8.171-22.196,12.672-45.901,13.495-70.839H497v110
	c-43.4,3.617-78.103,38.319-81.72,81.719H96.715c-0.527-6.345-1.713-12.601-3.566-18.672c-1.209-3.963-5.401-6.192-9.363-4.983
	c-3.962,1.209-6.193,5.4-4.984,9.362c1.42,4.652,2.366,9.437,2.851,14.293H65.034C37.445,484.806,15,462.359,15,434.772v-16.613
	c18.333,1.863,35.491,10.488,47.932,24.317c1.481,1.646,3.525,2.483,5.578,2.483c1.787,0,3.58-0.635,5.014-1.924
	c3.08-2.771,3.33-7.513,0.56-10.593C58.8,415.454,37.589,404.997,15,403.09V293.086H69.321z"/>
<g>
</g>
<g>
</g>
<g>
</g>
<g>
</g>
<g>
</g>
<g>
</g>
<g>
</g>
<g>
</g>
<g>
</g>
<g>
</g>
<g>
</g>
<g>
</g>
<g>
</g>
<g>
</g>
<g>
</g>
</svg>
