<svg height="488pt" viewBox="0 -95 488.442 488" width="488pt" xmlns="http://www.w3.org/2000/svg"><path d="m115.796875 74.609375c-16.542969-40.429687-115.796875-60.644531-115.796875 40.425781 0 101.074219 115.796875 141.5 115.796875 141.5s115.796875-40.429687 115.796875-141.5c0-101.070312-99.253906-80.855468-115.796875-40.425781zm0 0" fill="#e9686a"/><path d="m115.789062 228.875c-1.222656 0-2.429687-.273438-3.53125-.796875-26.289062-12.441406-87.445312-48.367187-87.445312-113.042969 0-4.566406 3.703125-8.269531 8.273438-8.269531 4.566406 0 8.269531 3.703125 8.269531 8.269531 0 55.226563 54.53125 86.996094 77.980469 98.09375 4.128906 1.949219 5.894531 6.878906 3.941406 11.011719-1.367188 2.894531-4.285156 4.738281-7.488282 4.734375zm0 0" fill="#f98c96"/><path d="m363.929688 297.890625-.265626-.003906c-4.179687-.132813-7.605468-3.371094-7.972656-7.539063l-18.800781-213.078125-22.683594 147.4375c-.617187 4.019531-4.0625 6.992188-8.125 7.015625h-.050781c-4.042969 0-7.492188-2.921875-8.15625-6.910156l-17.816406-106.890625-7.304688 32.882813c-.84375 3.785156-4.199218 6.476562-8.078125 6.476562h-148.878906c-4.566406 0-8.273437-3.703125-8.273437-8.269531 0-4.570313 3.707031-8.273438 8.273437-8.273438h142.25l15.09375-67.960937c.898437-3.84375 4.351563-6.539063 8.296875-6.472656 3.957031.105468 7.289062 3 7.941406 6.90625l16.332032 97.96875 25.234374-164.035157c.710938-4.089843 4.285157-7.0585935 8.4375-7.007812 4.183594.132812 7.605469 3.371093 7.972657 7.539062l18.804687 213.078125 22.679688-147.4375c.605468-3.933594 3.925781-6.878906 7.902344-7.011718 4.007812-.21875 7.566406 2.539062 8.351562 6.476562l15.097656 67.960938h59.535156c4.570313 0 8.273438 3.703124 8.273438 8.269531 0 4.570312-3.703125 8.273437-8.273438 8.273437h-66.167968c-3.878906-.003906-7.234375-2.695312-8.078125-6.480468l-6.988281-31.449219-26.386719 171.523437c-.621094 4.03125-4.089844 7.011719-8.175781 7.011719zm0 0" fill="#238892"/><path d="m140.609375 149.011719c0 13.703125-11.109375 24.8125-24.8125 24.8125s-24.8125-11.109375-24.8125-24.8125c0-13.707031 11.109375-24.816407 24.8125-24.816407s24.8125 11.109376 24.8125 24.816407zm0 0" fill="#f98c96"/></svg>