<svg height="512pt" viewBox="0 -58 512.00001 512" width="512pt" xmlns="http://www.w3.org/2000/svg"><path d="m193.984375 155.285156c18.730469-6.589844 32.40625-26.75 32.40625-50.542968v-10.058594c0-4.269532-3.460937-7.726563-7.726563-7.726563-4.269531 0-7.726562 3.457031-7.726562 7.726563v10.058594c0 20.605468-13.554688 37.371093-30.214844 37.371093h-15.835937c-4.269531 0-7.726563 3.457031-7.726563 7.722657 0 2.625 1.3125 4.941406 3.3125 6.339843-1.5 1.40625-2.441406 3.402344-2.441406 5.625 0 4.265625 3.460938 7.726563 7.726562 7.726563h15.929688c26.296875 0 47.691406 21.390625 47.691406 47.6875v170.210937c0 4.269531 3.460938 7.726563 7.726563 7.726563s7.726562-3.460938 7.726562-7.726563v-170.207031c-.003906-30.609375-21.898437-56.195312-50.847656-61.933594zm0 0" fill="#d81229"/><path d="m69.023438 7.570312c22.695312-11.164062 50.546874-10.300781 73.113281 4.726563 33.738281 22.457031 42.878906 68.015625 20.417969 101.75-.445313.667969-.878907 1.332031-1.308594 1.996094-4.703125 7.3125-4.464844 16.636719.101562 24.035156 3.09375 5.015625 4.90625 11.082031 4.90625 17.617187 0 6.535157-1.808594 12.597657-4.902344 17.613282-4.59375 7.453125-4.773437 16.820312-.019531 24.175781.214844.328125.429688.660156.644531.992187 22.382813 34.042969 13.71875 80.710938-20.394531 102.988282-12.359375 8.070312-26.277343 11.941406-40.042969 11.941406-23.714843 0-46.984374-11.472656-61.125-32.683594-26.828124-40.238281-40.4257808-82.308594-40.414062-125.042968.0117188-42.683594 13.597656-84.730469 40.386719-124.96875 1.257812-1.886719 2.597656-3.6875 3.996093-5.421876 0 0 8.492188-11.507812 24.640626-19.71875zm0 0" fill="#cf4842"/><path d="m72.242188 282.722656c-26.824219-40.238281-40.425782-82.308594-40.414063-125.042968.011719-42.683594 13.601563-84.730469 40.386719-124.964844 1.257812-1.890625 2.601562-3.691406 3.996094-5.425782l24.640624-19.71875c5.304688-2.609374 10.894532-4.550781 16.628907-5.820312-16.40625-3.65625-33.542969-1.515625-48.457031 5.820312-9.3125 4.554688-17.429688 11.304688-24.640626 19.71875-1.398437 1.734376-2.738281 3.535157-3.996093 5.421876-26.789063 40.238281-40.3750002 82.285156-40.386719 124.96875-.0117188 42.734374 13.585938 84.804687 40.414062 125.042968 14.144532 21.210938 37.410157 32.683594 61.125 32.683594 5.304688 0 10.636719-.582031 15.890626-1.753906-17.84375-3.949219-34.246094-14.523438-45.1875-30.929688zm0 0" fill="#a83a36"/><path d="m317.695312 155.285156c-18.730468-6.589844-32.40625-26.75-32.40625-50.542968v-10.058594c0-4.269532 3.460938-7.726563 7.726563-7.726563s7.726563 3.457031 7.726563 7.726563v10.058594c0 20.605468 13.554687 37.371093 30.214843 37.371093h15.835938c4.269531 0 7.726562 3.457031 7.726562 7.722657 0 2.625-1.3125 4.941406-3.3125 6.339843 1.5 1.40625 2.441407 3.402344 2.441407 5.625 0 4.265625-3.460938 7.726563-7.726563 7.726563h-15.929687c-26.296876 0-47.691407 21.390625-47.691407 47.6875v170.210937c0 4.269531-3.460937 7.726563-7.726562 7.726563s-7.726563-3.460938-7.726563-7.726563v-170.207031c.003906-30.609375 21.898438-56.195312 50.847656-61.933594zm0 0" fill="#1e59a2"/><path d="m467.617188 27.289062c1.277343 1.824219 2.738281 3.535157 3.996093 5.421876 26.785157 40.238281 40.375 82.285156 40.386719 124.96875.011719 42.734374-13.589844 84.804687-40.414062 125.042968-14.144532 21.210938-37.410157 32.683594-61.125 32.683594-13.765626 0-27.683594-3.871094-40.046876-11.941406-34.113281-22.277344-42.777343-68.945313-20.394531-102.988282.21875-.332031.433594-.664062.644531-.992187 4.753907-7.355469 4.578126-16.722656-.015624-24.175781-3.09375-5.015625-4.902344-11.078125-4.902344-17.613282 0-6.535156 1.808594-12.597656 4.90625-17.617187 4.5625-7.398437 4.800781-16.722656.097656-24.035156-.425781-.664063-.863281-1.328125-1.308594-1.996094-22.457031-33.734375-13.316406-79.292969 20.417969-101.75 22.570313-15.027344 50.421875-15.890625 73.117187-4.726563 0 0 17.96875 10.199219 24.640626 19.71875zm0 0" fill="#cf4842"/><path d="m471.613281 32.710938c-1.257812-1.886719-2.597656-3.6875-3.996093-5.421876-7.398438-8.25-15.578126-14.894531-24.640626-19.71875-15.621093-7.683593-33.691406-9.667968-50.792968-5.257812 4.90625 1.253906 9.695312 3.007812 14.269531 5.257812l24.640625 19.71875c1.398438 1.734376 2.738281 3.535157 3.996094 5.421876 26.789062 40.238281 40.375 82.285156 40.386718 124.96875.011719 42.734374-13.589843 84.804687-40.414062 125.042968-10.460938 15.683594-25.910156 26.039063-42.839844 30.371094 6.011719 1.546875 12.140625 2.3125 18.238282 2.3125 23.714843 0 46.984374-11.472656 61.125-32.683594 26.824218-40.238281 40.425781-82.308594 40.414062-125.042968-.011719-42.683594-13.597656-84.730469-40.386719-124.96875zm0 0" fill="#a83a36"/></svg>